<?xml version="1.0" standalone="no"?>
<!DOCTYPE svg PUBLIC "-//W3C//DTD SVG 20010904//EN"
 "http://www.w3.org/TR/2001/REC-SVG-20010904/DTD/svg10.dtd">
<svg version="1.0" xmlns="http://www.w3.org/2000/svg"
 width="700.000000pt" height="700.000000pt" viewBox="0 0 700.000000 700.000000"
 preserveAspectRatio="xMidYMid meet">
<metadata>
Created by potrace 1.14, written by Peter Selinger 2001-2017
</metadata>
<g transform="translate(0.000000,700.000000) scale(0.100000,-0.100000)"
fill="#000000" stroke="none">
<path d="M6338 6279 c-10 -5 -176 -80 -370 -165 -194 -85 -366 -161 -383 -169
-16 -7 -88 -39 -160 -70 -71 -31 -150 -66 -175 -77 -25 -12 -101 -45 -170 -75
-69 -30 -144 -63 -167 -74 -67 -30 -117 -52 -273 -120 -80 -34 -147 -64 -148
-65 -3 -2 127 -304 228 -529 10 -22 86 -195 170 -385 83 -190 158 -358 165
-375 21 -46 131 -296 187 -425 85 -194 119 -272 292 -665 223 -506 214 -485
224 -485 9 0 62 22 167 70 22 10 96 43 165 73 182 79 220 97 220 103 0 3 -11
30 -25 60 -14 30 -36 81 -50 114 -14 33 -36 83 -49 112 -13 29 -68 152 -121
273 -228 516 -315 718 -313 720 4 3 96 45 188 85 41 18 93 40 115 50 22 10 83
37 135 60 52 23 109 48 125 55 17 7 133 59 260 115 126 55 231 103 234 106 4
4 -26 78 -89 219 -15 33 -49 110 -75 170 -26 61 -51 113 -55 117 -5 6 -226
-85 -345 -142 -11 -5 -83 -37 -160 -71 -77 -33 -158 -69 -180 -79 -22 -10
-118 -52 -213 -93 l-172 -76 -14 32 c-25 59 -167 381 -190 432 -39 84 -39 89
-8 102 15 7 50 22 77 34 28 12 78 34 113 50 35 16 65 29 68 29 2 0 34 14 71
31 38 17 82 37 98 44 200 88 472 208 517 229 31 14 59 26 62 26 3 0 34 13 68
29 35 17 95 43 133 60 42 18 69 35 67 43 -3 11 -100 237 -152 353 -10 22 -30
66 -44 98 -13 31 -26 57 -28 57 -2 0 -11 -5 -20 -11z"/>
<path d="M3890 5200 c-85 -38 -182 -81 -215 -96 -33 -15 -94 -41 -135 -59 -41
-18 -95 -41 -120 -53 -25 -11 -88 -39 -140 -62 -52 -23 -113 -50 -135 -60 -87
-38 -146 -64 -290 -127 -82 -36 -178 -78 -213 -94 -35 -16 -65 -29 -67 -29 -2
0 -36 -15 -77 -34 -40 -19 -122 -55 -183 -81 -60 -26 -114 -51 -119 -55 -5 -5
-2 -23 7 -42 8 -18 93 -208 187 -423 94 -214 220 -500 280 -635 59 -135 214
-488 345 -785 408 -927 432 -980 447 -977 11 3 538 232 546 237 3 2 -20 57
-55 135 -14 30 -56 125 -93 210 -37 85 -101 232 -143 325 -206 467 -267 607
-267 614 0 4 26 18 58 31 31 13 84 36 117 51 33 15 191 84 350 154 339 149
328 143 428 189 42 20 82 36 87 36 29 0 19 27 -152 410 -15 36 -34 77 -41 92
l-12 27 -40 -19 c-22 -10 -155 -68 -295 -130 -140 -62 -273 -120 -295 -130
-224 -102 -431 -188 -437 -182 -9 9 -238 527 -238 539 0 4 58 32 128 62 70 30
154 67 187 82 47 21 748 330 948 417 20 9 37 22 37 27 0 20 -216 499 -225 501
-6 1 -80 -29 -165 -66z"/>
<path d="M1084 3984 c-276 -48 -543 -183 -722 -364 -132 -134 -238 -342 -267
-525 -4 -22 -10 -60 -14 -85 -8 -53 -7 -240 3 -325 18 -157 106 -493 160 -610
8 -16 31 -70 51 -120 136 -331 325 -629 524 -825 384 -379 849 -439 1351 -174
274 145 450 349 527 609 45 150 61 376 39 552 -10 81 -37 224 -47 251 -6 15
-10 27 -9 27 11 0 -74 260 -133 405 -177 433 -419 781 -682 982 -114 87 -304
175 -411 192 -20 4 -40 9 -45 12 -19 11 -257 10 -325 -2z m207 -622 c213 -103
428 -393 602 -812 78 -190 138 -372 154 -475 3 -16 9 -50 13 -75 10 -50 7
-279 -4 -324 -25 -104 -111 -205 -213 -253 -73 -33 -205 -41 -280 -16 -120 40
-259 167 -375 342 -135 204 -347 675 -393 871 -2 8 -10 44 -19 80 -54 232 -33
433 59 553 38 50 118 107 185 131 72 26 191 16 271 -22z"/>
</g>
</svg>
